# xmcd CD database file
#
# Track frame offsets:
#	183
#	15820
#	33115
#	45175
#	56818
#	76040
#	97503
#	110688
#	122728
#	135608
#	149948
#	167515
#	181748
#	188925
#	201745
#	214073
#	229783
#
# Disc length: 3385 seconds
#
# Revision: 5
# Processed by: cddbd v1.5.2PL0 Copyright (c) Steve Scherf et al.
# Submitted via: CDex 1.51
#
DISCID=de0d3711
DTITLE=Fleetwood Mac - The Blues Years (2)
DYEAR=1990
DGENRE=Blues Rock
TTITLE0=Need Your Love Tonight
TTITLE1=If You Be My Baby
TTITLE2=Evenin' Boogie
TTITLE3=Lazy Poker Blues
TTITLE4=I've Lost My Baby
TTITLE5=Trying So Hard To Forget
TTITLE6=I Believe My Time Ain't Long
TTITLE7=Ramblin' Pony
TTITLE8=Black Magic Woman
TTITLE9=The Sun Is Shining
TTITLE10=Need Your Love So Bad
TTITLE11=Albatross
TTITLE12=Jigsaw Puzzle BLues
TTITLE13=Man Of The World
TTITLE14=Someone'e Gonna Get Their Head Kicked In Tonite
TTITLE15=Watch Out
TTITLE16=Worried Dream
EXTD=ESBCD/2 YEAR: 1990
EXTT0=
EXTT1=
EXTT2=
EXTT3=
EXTT4=
EXTT5=
EXTT6=
EXTT7=
EXTT8=
EXTT9=
EXTT10=
EXTT11=
EXTT12=
EXTT13=
EXTT14=
EXTT15=
EXTT16=
PLAYORDER=
